<svg xmlns="http://www.w3.org/2000/svg" xmlns:svg="http://www.w3.org/2000/svg" id="svg8" width="48" height="48" version="1.1" viewBox="0 0 12.7 12.7"><metadata id="metadata5"/><g id="layer1" transform="translate(0,-284.3)"><g id="g836"><rect id="rect1733" width="12.7" height="12.7" x="0" y="284.3" style="opacity:1;vector-effect:none;fill:#661f76;fill-opacity:1;fill-rule:nonzero;stroke:none;stroke-width:.09960784;stroke-linecap:butt;stroke-linejoin:miter;stroke-miterlimit:4;stroke-dasharray:none;stroke-dashoffset:0;stroke-opacity:1"/><g id="g1731" transform="matrix(0.17545692,0,0,0.17545692,7.4983819,273.23227)"><path style="fill:#661f76;fill-opacity:1;stroke:#fff;stroke-width:.75398374;stroke-linecap:butt;stroke-linejoin:miter;stroke-miterlimit:4;stroke-dasharray:none;stroke-opacity:1" id="path1689" d="m -36.084117,86.919493 -0.0167,10.510987 9.259924,5.44165 6.987324,-4.039809 -0.01769,26.833699 9.22461,5.45093 9.2346449,-5.33607 0.017447,-9.42605 8.277363,-4.77736 2.248e-4,-10.46314 -8.0993129,-4.738868 -0.1010935,-7.187906 15.2741647,8.908856 8.921356,-5.448704 0.13944,-10.466643 L -2.2396399,67.44954 Z"/><path style="opacity:1;vector-effect:none;fill:#661f76;fill-opacity:1;fill-rule:nonzero;stroke:none;stroke-width:.10341848;stroke-linecap:butt;stroke-linejoin:miter;stroke-miterlimit:4;stroke-dasharray:none;stroke-dashoffset:0;stroke-opacity:1" id="rect1512" d="m -34.982113,87.648437 8.031994,4.677455 v 9.307668 l -8.031994,-4.677459 z"/><path style="opacity:1;vector-effect:none;fill:#3fc6ee;fill-opacity:1;fill-rule:nonzero;stroke:none;stroke-width:.39087299;stroke-linecap:butt;stroke-linejoin:miter;stroke-miterlimit:4;stroke-dasharray:none;stroke-dashoffset:0;stroke-opacity:1" id="rect1512-9" d="M -8.6445312,259.66211 -132.2168,331.26953 -101.85938,348.94922 -8.9550781,295.11328 52.369141,330.64062 82.84305,312.46039 Z" transform="scale(0.26458333)"/><path style="opacity:1;vector-effect:none;fill:#3fc6ee;fill-opacity:1;fill-rule:nonzero;stroke:none;stroke-width:.10341848;stroke-linecap:butt;stroke-linejoin:miter;stroke-miterlimit:4;stroke-dasharray:none;stroke-dashoffset:0;stroke-opacity:1" id="rect1512-9-8" d="m -2.3294599,97.000255 8.031993,4.677455 -8.273187,4.68055 -8.0319941,-4.67746 z"/><path style="opacity:1;vector-effect:none;fill:#661f76;fill-opacity:1;fill-rule:nonzero;stroke:none;stroke-width:.39087299;stroke-linecap:butt;stroke-linejoin:miter;stroke-miterlimit:4;stroke-dasharray:none;stroke-dashoffset:0;stroke-opacity:1" id="rect1512-94" d="m -40.429688,348.70508 -30.357421,17.32031 v 107.0293 l 30.357421,17.67969 v -71.57227 l 30.7128911,18 V 401.98438 L -39.857203,384.30047 Z" transform="scale(0.26458333)"/><path style="opacity:1;vector-effect:none;fill:#661f76;fill-opacity:1;fill-rule:nonzero;stroke:none;stroke-width:.10341848;stroke-linecap:butt;stroke-linejoin:miter;stroke-miterlimit:4;stroke-dasharray:none;stroke-dashoffset:0;stroke-opacity:1" id="rect1512-94-5" d="m -2.3696748,78.082315 16.2254758,9.399559 v 9.30767 L -2.3279139,87.434868 Z"/><path style="opacity:1;vector-effect:none;fill:#865fc5;fill-opacity:1;fill-rule:nonzero;stroke:none;stroke-width:.10341848;stroke-linecap:butt;stroke-linejoin:miter;stroke-miterlimit:4;stroke-dasharray:none;stroke-dashoffset:0;stroke-opacity:1" id="rect1512-3" d="m 21.909986,82.679259 -8.054185,4.802615 v 9.319569 l 8.031994,-4.677459 z"/><path style="opacity:1;vector-effect:none;fill:#865fc5;fill-opacity:1;fill-rule:nonzero;stroke:none;stroke-width:.10341848;stroke-linecap:butt;stroke-linejoin:miter;stroke-miterlimit:4;stroke-dasharray:none;stroke-dashoffset:0;stroke-opacity:1" id="rect1512-3-6" d="m 5.7025331,101.67771 -8.273187,4.68055 v 9.30767 l 8.273187,-4.68056 z"/><path style="opacity:1;vector-effect:none;fill:#865fc5;fill-opacity:1;fill-rule:nonzero;stroke:none;stroke-width:.39087299;stroke-linecap:butt;stroke-linejoin:miter;stroke-miterlimit:4;stroke-dasharray:none;stroke-dashoffset:0;stroke-opacity:1" id="rect1512-3-65" d="m -8.95767,295.11376 -92.90171,53.83546 v 35.17773 l 61.429692,-35.42383 0.491071,35.51284 31.1339295,-17.60073 V 330.4668 l 0.00586,-0.004 z" transform="scale(0.26458333)"/><path style="opacity:1;vector-effect:none;fill:#865fc5;fill-opacity:1;fill-rule:nonzero;stroke:none;stroke-width:.10341848;stroke-linecap:butt;stroke-linejoin:miter;stroke-miterlimit:4;stroke-dasharray:none;stroke-dashoffset:0;stroke-opacity:1" id="rect1512-3-6-8-8" d="m -2.5706539,115.66593 -8.1264881,-4.77196 v 18.94606 l 8.1264881,-4.58296 z"/></g></g></g></svg>