<svg xmlns="http://www.w3.org/2000/svg" xmlns:svg="http://www.w3.org/2000/svg" id="svg8" width="48" height="48" version="1.1" viewBox="0 0 12.7 12.7"><metadata id="metadata5"/><g id="layer1" transform="translate(0,-284.3)"><g id="g1747" transform="matrix(0.17545692,0,0,0.17545692,7.3281979,273.50574)"><rect id="rect1733" width="72.382" height="72.382" x="-41.766" y="61.521" style="opacity:1;vector-effect:none;fill:none;fill-opacity:1;fill-rule:nonzero;stroke:none;stroke-width:.56770539;stroke-linecap:butt;stroke-linejoin:miter;stroke-miterlimit:4;stroke-dasharray:none;stroke-dashoffset:0;stroke-opacity:1"/><g id="g1731" transform="translate(0.96994748,-1.5585957)"><path style="fill:#661f76;fill-opacity:1;stroke:#fff;stroke-width:.5291667;stroke-linecap:butt;stroke-linejoin:miter;stroke-miterlimit:4;stroke-dasharray:none;stroke-opacity:1" id="path1689" d="m -35.249383,87.502272 -0.0167,9.606542 8.282384,4.858866 7.97064,-4.588924 -0.0167,27.950664 8.34945,4.81139 8.3931452,-4.73019 -0.016213,-9.59435 8.277363,-4.67638 2.248e-4,-9.62164 -8.0319929,-4.671548 -1.136e-4,-8.938226 15.9137045,9.211796 8.315476,-4.842824 0.0048,-9.759783 -24.4633273,-14.116077 z"/><path style="opacity:1;vector-effect:none;fill:#661f76;fill-opacity:1;fill-rule:nonzero;stroke:none;stroke-width:.10341848;stroke-linecap:butt;stroke-linejoin:miter;stroke-miterlimit:4;stroke-dasharray:none;stroke-dashoffset:0;stroke-opacity:1" id="rect1512" d="m -34.982113,87.648437 8.031994,4.677455 v 9.307668 l -8.031994,-4.677459 z"/><path style="opacity:1;vector-effect:none;fill:#3fc6ee;fill-opacity:1;fill-rule:nonzero;stroke:none;stroke-width:.39087299;stroke-linecap:butt;stroke-linejoin:miter;stroke-miterlimit:4;stroke-dasharray:none;stroke-dashoffset:0;stroke-opacity:1" id="rect1512-9" d="M -8.6445312,259.66211 -132.2168,331.26953 -101.85938,348.94922 -8.9550781,295.11328 52.369141,330.64062 82.84305,312.46039 Z" transform="scale(0.26458333)"/><path style="opacity:1;vector-effect:none;fill:#3fc6ee;fill-opacity:1;fill-rule:nonzero;stroke:none;stroke-width:.10341848;stroke-linecap:butt;stroke-linejoin:miter;stroke-miterlimit:4;stroke-dasharray:none;stroke-dashoffset:0;stroke-opacity:1" id="rect1512-9-8" d="m -2.3294599,97.000255 8.031993,4.677455 -8.273187,4.68055 -8.0319941,-4.67746 z"/><path style="opacity:1;vector-effect:none;fill:#661f76;fill-opacity:1;fill-rule:nonzero;stroke:none;stroke-width:.39087299;stroke-linecap:butt;stroke-linejoin:miter;stroke-miterlimit:4;stroke-dasharray:none;stroke-dashoffset:0;stroke-opacity:1" id="rect1512-94" d="m -40.429688,348.70508 -30.357421,17.32031 v 107.0293 l 30.357421,17.67969 v -71.57227 l 30.7128911,18 V 401.98438 L -40.429688,383.98242 Z" transform="scale(0.26458333)"/><path style="opacity:1;vector-effect:none;fill:#661f76;fill-opacity:1;fill-rule:nonzero;stroke:none;stroke-width:.10341848;stroke-linecap:butt;stroke-linejoin:miter;stroke-miterlimit:4;stroke-dasharray:none;stroke-dashoffset:0;stroke-opacity:1" id="rect1512-94-5" d="m -2.3696748,78.082315 16.2254758,9.399559 v 9.30767 L -2.3279139,87.434868 Z"/><path style="opacity:1;vector-effect:none;fill:#865fc5;fill-opacity:1;fill-rule:nonzero;stroke:none;stroke-width:.10341848;stroke-linecap:butt;stroke-linejoin:miter;stroke-miterlimit:4;stroke-dasharray:none;stroke-dashoffset:0;stroke-opacity:1" id="rect1512-3" d="m 21.909986,82.679259 -8.054185,4.802615 v 9.319569 l 8.031994,-4.677459 z"/><path style="opacity:1;vector-effect:none;fill:#865fc5;fill-opacity:1;fill-rule:nonzero;stroke:none;stroke-width:.10341848;stroke-linecap:butt;stroke-linejoin:miter;stroke-miterlimit:4;stroke-dasharray:none;stroke-dashoffset:0;stroke-opacity:1" id="rect1512-3-6" d="m 5.7025331,101.67771 -8.273187,4.68055 v 9.30767 l 8.273187,-4.68056 z"/><path style="opacity:1;vector-effect:none;fill:#865fc5;fill-opacity:1;fill-rule:nonzero;stroke:none;stroke-width:.39087299;stroke-linecap:butt;stroke-linejoin:miter;stroke-miterlimit:4;stroke-dasharray:none;stroke-dashoffset:0;stroke-opacity:1" id="rect1512-3-65" d="m -8.95767,295.11376 -92.90171,53.83546 v 35.17773 l 61.429692,-35.42383 0.491071,35.51284 31.1339295,-17.60073 V 330.4668 l 0.00586,-0.004 z" transform="scale(0.26458333)"/><path style="opacity:1;vector-effect:none;fill:#865fc5;fill-opacity:1;fill-rule:nonzero;stroke:none;stroke-width:.10341848;stroke-linecap:butt;stroke-linejoin:miter;stroke-miterlimit:4;stroke-dasharray:none;stroke-dashoffset:0;stroke-opacity:1" id="rect1512-3-6-8-8" d="m -2.5706539,115.66593 -8.1264881,-4.77196 v 18.94606 l 8.1264881,-4.58296 z"/></g></g></g></svg>